<?xml version="1.0" encoding="utf-8"?>
<!-- Svg Vector Icons : http://www.onlinewebfonts.com/icon -->
<!DOCTYPE svg PUBLIC "-//W3C//DTD SVG 1.1//EN" "http://www.w3.org/Graphics/SVG/1.1/DTD/svg11.dtd">
<svg version="1.1" xmlns="http://www.w3.org/2000/svg" xmlns:xlink="http://www.w3.org/1999/xlink" x="0px" y="0px" viewBox="0 0 1000 1000" enable-background="new 0 0 1000 1000" xml:space="preserve">
<metadata> Svg Vector Icons : http://www.onlinewebfonts.com/icon </metadata>
<g><g transform="translate(0.000000,511.000000) scale(0.100000,-0.100000)"><path d="M1118.1,2248.9c-276.7-72.6-475-192.3-667.3-402.3C42.6,1401.1-14.3,749.5,309.6,233.3l76.5-123.6L309.6-12C-16.2-532.1,42.6-1179.7,452.8-1629.1c549.5-600.6,1477.8-580.9,2013.6,39.2c88.3,100.1,208,306.2,227.7,390.5l13.7,53h2294.3c1925.3,0,2294.3-3.9,2294.3-27.5c0-51,137.4-296.4,223.8-402.3c123.6-151.1,274.8-268.9,453.3-355.2c747.7-361.1,1627,27.5,1870.3,824.3c111.9,365,55,761.5-155,1097.1l-78.5,123.6l70.6,104c149.2,225.7,213.9,447.5,213.9,736c0,341.5-117.8,643.7-349.4,896.9c-402.3,439.6-1038.2,561.3-1570.1,302.2c-182.5-90.3-331.7-206.1-455.3-357.2c-86.4-106-223.8-351.3-223.8-402.3c0-23.5-369-27.5-2294.3-27.5H2707.8l-13.7,54.9c-5.9,29.4-43.2,107.9-80.5,174.7c-239.4,429.8-694.8,694.8-1189.3,690.8C1330.1,2286.2,1200.6,2270.5,1118.1,2248.9z"/></g></g>
</svg>
